<svg xmlns="http://www.w3.org/2000/svg" xmlns:xlink="http://www.w3.org/1999/xlink" width="500" zoomAndPan="magnify" viewBox="0 0 375 374.999991" height="500" preserveAspectRatio="xMidYMid meet" version="1.0"><defs><g/><clipPath id="7a18e36757"><path d="M 293.1875 168.597656 L 349.304688 168.597656 L 349.304688 215.394531 L 293.1875 215.394531 Z M 293.1875 168.597656 " clip-rule="nonzero"/></clipPath><clipPath id="b846aa0f2f"><path d="M 294.6875 168.597656 L 347.6875 168.597656 C 348.085938 168.597656 348.46875 168.757812 348.75 169.039062 C 349.03125 169.320312 349.1875 169.703125 349.1875 170.097656 L 349.1875 213.894531 C 349.1875 214.292969 349.03125 214.675781 348.75 214.957031 C 348.46875 215.238281 348.085938 215.394531 347.6875 215.394531 L 294.6875 215.394531 C 294.289062 215.394531 293.90625 215.238281 293.625 214.957031 C 293.34375 214.675781 293.1875 214.292969 293.1875 213.894531 L 293.1875 170.097656 C 293.1875 169.703125 293.34375 169.320312 293.625 169.039062 C 293.90625 168.757812 294.289062 168.597656 294.6875 168.597656 Z M 294.6875 168.597656 " clip-rule="nonzero"/></clipPath><clipPath id="6df8e7cdab"><path d="M 297.777344 177.601562 L 344.277344 177.601562 L 344.277344 206.101562 L 297.777344 206.101562 Z M 297.777344 177.601562 " clip-rule="nonzero"/></clipPath></defs><rect x="-37.5" width="450" fill="#ffffff" y="-37.499999" height="449.999989" fill-opacity="1"/><rect x="-37.5" width="450" fill="#132530" y="-37.499999" height="449.999989" fill-opacity="1"/><g fill="#f85a00" fill-opacity="1"><g transform="translate(25.812463, 205.973111)"><g><path d="M 16.484375 0.59375 C 13.554688 0.59375 10.96875 -0.0195312 8.71875 -1.25 C 6.46875 -2.476562 4.71875 -4.21875 3.46875 -6.46875 C 2.21875 -8.71875 1.59375 -11.34375 1.59375 -14.34375 C 1.59375 -17.238281 2.21875 -19.773438 3.46875 -21.953125 C 4.71875 -24.128906 6.457031 -25.832031 8.6875 -27.0625 C 10.914062 -28.300781 13.515625 -28.921875 16.484375 -28.921875 C 19.453125 -28.921875 22.050781 -28.300781 24.28125 -27.0625 C 26.507812 -25.832031 28.25 -24.128906 29.5 -21.953125 C 30.75 -19.773438 31.375 -17.238281 31.375 -14.34375 C 31.375 -11.34375 30.753906 -8.722656 29.515625 -6.484375 C 28.285156 -4.253906 26.554688 -2.515625 24.328125 -1.265625 C 22.097656 -0.0234375 19.484375 0.59375 16.484375 0.59375 Z M 16.484375 -6.59375 C 18.378906 -6.59375 19.875 -7.300781 20.96875 -8.71875 C 22.070312 -10.132812 22.625 -12.007812 22.625 -14.34375 C 22.625 -16.539062 22.070312 -18.328125 20.96875 -19.703125 C 19.875 -21.085938 18.378906 -21.78125 16.484375 -21.78125 C 14.617188 -21.78125 13.109375 -21.097656 11.953125 -19.734375 C 10.804688 -18.367188 10.234375 -16.570312 10.234375 -14.34375 C 10.234375 -11.976562 10.804688 -10.09375 11.953125 -8.6875 C 13.109375 -7.289062 14.617188 -6.59375 16.484375 -6.59375 Z M 16.484375 -6.59375 "/></g></g></g><g fill="#f85a00" fill-opacity="1"><g transform="translate(58.779052, 205.973111)"><g><path d="M 12.78125 0.59375 C 8.15625 0.59375 5.109375 -1.035156 3.640625 -4.296875 C 3.347656 -4.960938 3.125 -5.628906 2.96875 -6.296875 C 2.820312 -6.960938 2.710938 -7.773438 2.640625 -8.734375 C 2.578125 -9.703125 2.546875 -10.953125 2.546875 -12.484375 L 2.546875 -28.328125 L 10.9375 -28.328125 L 10.9375 -12.390625 C 10.9375 -10.992188 11.023438 -9.894531 11.203125 -9.09375 C 11.390625 -8.289062 11.703125 -7.65625 12.140625 -7.1875 C 12.804688 -6.488281 13.835938 -6.140625 15.234375 -6.140625 C 16.171875 -6.140625 16.9375 -6.265625 17.53125 -6.515625 C 18.132812 -6.765625 18.617188 -7.125 18.984375 -7.59375 C 19.679688 -8.519531 20.03125 -10.117188 20.03125 -12.390625 L 20.03125 -28.328125 L 28.421875 -28.328125 L 28.421875 0 L 20.03125 0 L 20.03125 -3.046875 C 19.195312 -1.785156 18.203125 -0.863281 17.046875 -0.28125 C 15.898438 0.300781 14.476562 0.59375 12.78125 0.59375 Z M 12.78125 0.59375 "/></g></g></g><g fill="#f85a00" fill-opacity="1"><g transform="translate(89.947465, 205.973111)"><g><path d="M 16.390625 0.59375 C 13.390625 0.59375 10.78125 -0.0351562 8.5625 -1.296875 C 6.351562 -2.566406 4.640625 -4.289062 3.421875 -6.46875 C 2.203125 -8.644531 1.59375 -11.132812 1.59375 -13.9375 C 1.59375 -15.738281 1.867188 -17.519531 2.421875 -19.28125 C 2.972656 -21.039062 3.835938 -22.65625 5.015625 -24.125 C 6.203125 -25.59375 7.707031 -26.757812 9.53125 -27.625 C 11.363281 -28.488281 13.566406 -28.921875 16.140625 -28.921875 C 18.003906 -28.921875 19.804688 -28.644531 21.546875 -28.09375 C 23.296875 -27.550781 24.863281 -26.675781 26.25 -25.46875 C 27.632812 -24.269531 28.734375 -22.710938 29.546875 -20.796875 C 30.359375 -18.890625 30.765625 -16.570312 30.765625 -13.84375 L 30.765625 -12.390625 L 10.390625 -12.390625 C 10.617188 -10.859375 11.101562 -9.640625 11.84375 -8.734375 C 12.4375 -8.003906 13.15625 -7.460938 14 -7.109375 C 14.851562 -6.765625 15.796875 -6.59375 16.828125 -6.59375 C 18.097656 -6.59375 19.171875 -6.90625 20.046875 -7.53125 C 20.929688 -8.164062 21.539062 -8.921875 21.875 -9.796875 L 30.328125 -9.796875 C 29.785156 -7.929688 28.929688 -6.207031 27.765625 -4.625 C 26.609375 -3.039062 25.085938 -1.773438 23.203125 -0.828125 C 21.316406 0.117188 19.046875 0.59375 16.390625 0.59375 Z M 10.640625 -18.328125 L 22.28125 -18.328125 C 22.207031 -18.660156 22.078125 -19.0625 21.890625 -19.53125 C 21.710938 -20 21.394531 -20.445312 20.9375 -20.875 C 20.332031 -21.476562 19.644531 -21.90625 18.875 -22.15625 C 18.113281 -22.40625 17.300781 -22.53125 16.4375 -22.53125 C 15.601562 -22.53125 14.796875 -22.40625 14.015625 -22.15625 C 13.234375 -21.90625 12.539062 -21.476562 11.9375 -20.875 C 11.46875 -20.414062 11.148438 -19.957031 10.984375 -19.5 C 10.816406 -19.050781 10.703125 -18.660156 10.640625 -18.328125 Z M 10.640625 -18.328125 "/></g></g></g><g fill="#f85a00" fill-opacity="1"><g transform="translate(122.314663, 205.973111)"><g><path d="M 14.03125 0.59375 C 11.632812 0.59375 9.503906 -0.0351562 7.640625 -1.296875 C 5.773438 -2.566406 4.316406 -4.304688 3.265625 -6.515625 C 2.222656 -8.734375 1.703125 -11.289062 1.703125 -14.1875 C 1.703125 -17.082031 2.222656 -19.632812 3.265625 -21.84375 C 4.316406 -24.0625 5.773438 -25.796875 7.640625 -27.046875 C 9.503906 -28.296875 11.632812 -28.921875 14.03125 -28.921875 C 15.53125 -28.921875 16.878906 -28.671875 18.078125 -28.171875 C 19.273438 -27.671875 20.34375 -26.707031 21.28125 -25.28125 L 21.28125 -38.109375 L 29.671875 -38.109375 L 29.671875 0 L 21.28125 0 L 21.28125 -3.046875 C 20.34375 -1.617188 19.273438 -0.65625 18.078125 -0.15625 C 16.878906 0.34375 15.53125 0.59375 14.03125 0.59375 Z M 16.390625 -6.546875 C 18.253906 -6.546875 19.75 -7.242188 20.875 -8.640625 C 22.007812 -10.035156 22.578125 -11.882812 22.578125 -14.1875 C 22.578125 -16.445312 22.007812 -18.273438 20.875 -19.671875 C 19.75 -21.078125 18.253906 -21.78125 16.390625 -21.78125 C 14.523438 -21.78125 13.023438 -21.070312 11.890625 -19.65625 C 10.753906 -18.238281 10.1875 -16.414062 10.1875 -14.1875 C 10.1875 -11.957031 10.753906 -10.125 11.890625 -8.6875 C 13.023438 -7.257812 14.523438 -6.546875 16.390625 -6.546875 Z M 16.390625 -6.546875 "/></g></g></g><g fill="#ffffff" fill-opacity="1"><g transform="translate(154.719839, 205.973111)"><g><path d="M 16.890625 -28.125 C 19.378906 -28.125 21.539062 -27.515625 23.375 -26.296875 C 25.207031 -25.085938 26.628906 -23.414062 27.640625 -21.28125 C 28.660156 -19.144531 29.171875 -16.664062 29.171875 -13.84375 C 29.171875 -11.007812 28.660156 -8.515625 27.640625 -6.359375 C 26.628906 -4.210938 25.207031 -2.53125 23.375 -1.3125 C 21.539062 -0.101562 19.378906 0.5 16.890625 0.5 C 15.054688 0.5 13.445312 0.160156 12.0625 -0.515625 C 10.675781 -1.203125 9.269531 -2.460938 7.84375 -4.296875 L 7.84375 10.484375 L 3.59375 10.484375 L 3.59375 -27.625 L 7.84375 -27.625 L 7.84375 -23.328125 C 9.238281 -25.128906 10.617188 -26.378906 11.984375 -27.078125 C 13.347656 -27.773438 14.984375 -28.125 16.890625 -28.125 Z M 16.484375 -24.375 C 14.785156 -24.375 13.269531 -23.914062 11.9375 -23 C 10.601562 -22.082031 9.5625 -20.832031 8.8125 -19.25 C 8.0625 -17.675781 7.6875 -15.875 7.6875 -13.84375 C 7.6875 -11.8125 8.0625 -9.992188 8.8125 -8.390625 C 9.5625 -6.796875 10.601562 -5.539062 11.9375 -4.625 C 13.269531 -3.707031 14.785156 -3.25 16.484375 -3.25 C 18.210938 -3.25 19.707031 -3.710938 20.96875 -4.640625 C 22.238281 -5.578125 23.210938 -6.84375 23.890625 -8.4375 C 24.578125 -10.039062 24.921875 -11.84375 24.921875 -13.84375 C 24.921875 -15.832031 24.578125 -17.617188 23.890625 -19.203125 C 23.210938 -20.785156 22.238281 -22.039062 20.96875 -22.96875 C 19.707031 -23.90625 18.210938 -24.375 16.484375 -24.375 Z M 16.484375 -24.375 "/></g></g></g><g fill="#ffffff" fill-opacity="1"><g transform="translate(186.387749, 205.973111)"><g><path d="M 5.6875 -32.375 C 4.789062 -32.375 4.023438 -32.679688 3.390625 -33.296875 C 2.765625 -33.910156 2.453125 -34.648438 2.453125 -35.515625 C 2.453125 -36.378906 2.765625 -37.109375 3.390625 -37.703125 C 4.023438 -38.304688 4.789062 -38.609375 5.6875 -38.609375 C 6.59375 -38.609375 7.359375 -38.304688 7.984375 -37.703125 C 8.617188 -37.109375 8.9375 -36.378906 8.9375 -35.515625 C 8.9375 -34.648438 8.617188 -33.910156 7.984375 -33.296875 C 7.359375 -32.679688 6.59375 -32.375 5.6875 -32.375 Z M 7.796875 0 L 3.546875 0 L 3.546875 -27.625 L 7.796875 -27.625 Z M 7.796875 0 "/></g></g></g><g fill="#ffffff" fill-opacity="1"><g transform="translate(197.726263, 205.973111)"><g><path d="M 15.828125 0.5 C 13.203125 0.5 10.875 -0.125 8.84375 -1.375 C 6.8125 -2.625 5.226562 -4.320312 4.09375 -6.46875 C 2.957031 -8.613281 2.390625 -11.035156 2.390625 -13.734375 C 2.390625 -16.234375 2.90625 -18.582031 3.9375 -20.78125 C 4.976562 -22.976562 6.492188 -24.75 8.484375 -26.09375 C 10.484375 -27.445312 12.898438 -28.125 15.734375 -28.125 C 18.066406 -28.125 20.238281 -27.609375 22.25 -26.578125 C 24.269531 -25.546875 25.910156 -24.015625 27.171875 -21.984375 C 28.441406 -19.953125 29.078125 -17.453125 29.078125 -14.484375 L 29.078125 -12.984375 L 6.59375 -12.984375 C 6.65625 -12.023438 6.835938 -11.109375 7.140625 -10.234375 C 7.835938 -8.109375 8.953125 -6.410156 10.484375 -5.140625 C 12.015625 -3.878906 13.78125 -3.25 15.78125 -3.25 C 17.882812 -3.25 19.632812 -3.804688 21.03125 -4.921875 C 22.425781 -6.035156 23.425781 -7.359375 24.03125 -8.890625 L 28.578125 -8.890625 C 28.003906 -7.160156 27.148438 -5.585938 26.015625 -4.171875 C 24.890625 -2.753906 23.484375 -1.617188 21.796875 -0.765625 C 20.117188 0.078125 18.128906 0.5 15.828125 0.5 Z M 7 -16.734375 L 24.53125 -16.734375 C 24.5 -17.203125 24.429688 -17.664062 24.328125 -18.125 C 24.222656 -18.59375 24.085938 -19.03125 23.921875 -19.4375 C 23.191406 -21.03125 22.101562 -22.25 20.65625 -23.09375 C 19.207031 -23.945312 17.597656 -24.375 15.828125 -24.375 C 14.003906 -24.375 12.398438 -23.941406 11.015625 -23.078125 C 9.628906 -22.210938 8.554688 -21 7.796875 -19.4375 C 7.597656 -19 7.429688 -18.546875 7.296875 -18.078125 C 7.160156 -17.617188 7.0625 -17.171875 7 -16.734375 Z M 7 -16.734375 "/></g></g></g><g fill="#ffffff" fill-opacity="1"><g transform="translate(229.14443, 205.973111)"><g><path d="M 15.78125 0.5 C 13.1875 0.5 10.878906 -0.113281 8.859375 -1.34375 C 6.847656 -2.582031 5.265625 -4.289062 4.109375 -6.46875 C 2.960938 -8.644531 2.390625 -11.132812 2.390625 -13.9375 C 2.390625 -16.664062 2.957031 -19.09375 4.09375 -21.21875 C 5.226562 -23.351562 6.800781 -25.035156 8.8125 -26.265625 C 10.832031 -27.503906 13.15625 -28.125 15.78125 -28.125 C 18.882812 -28.125 21.507812 -27.320312 23.65625 -25.71875 C 25.800781 -24.125 27.191406 -21.992188 27.828125 -19.328125 L 23.28125 -19.328125 C 22.75 -20.898438 21.804688 -22.132812 20.453125 -23.03125 C 19.109375 -23.925781 17.550781 -24.375 15.78125 -24.375 C 14.050781 -24.375 12.492188 -23.925781 11.109375 -23.03125 C 9.734375 -22.132812 8.644531 -20.898438 7.84375 -19.328125 C 7.039062 -17.765625 6.640625 -15.96875 6.640625 -13.9375 C 6.640625 -11.84375 7.039062 -9.992188 7.84375 -8.390625 C 8.644531 -6.796875 9.734375 -5.539062 11.109375 -4.625 C 12.492188 -3.707031 14.050781 -3.25 15.78125 -3.25 C 17.71875 -3.25 19.375 -3.765625 20.75 -4.796875 C 22.132812 -5.828125 23.046875 -7.191406 23.484375 -8.890625 L 28.03125 -8.890625 C 27.425781 -5.960938 26.007812 -3.664062 23.78125 -2 C 21.550781 -0.332031 18.882812 0.5 15.78125 0.5 Z M 15.78125 0.5 "/></g></g></g><g fill="#ffffff" fill-opacity="1"><g transform="translate(259.213954, 205.973111)"><g><path d="M 15.828125 0.5 C 13.203125 0.5 10.875 -0.125 8.84375 -1.375 C 6.8125 -2.625 5.226562 -4.320312 4.09375 -6.46875 C 2.957031 -8.613281 2.390625 -11.035156 2.390625 -13.734375 C 2.390625 -16.234375 2.90625 -18.582031 3.9375 -20.78125 C 4.976562 -22.976562 6.492188 -24.75 8.484375 -26.09375 C 10.484375 -27.445312 12.898438 -28.125 15.734375 -28.125 C 18.066406 -28.125 20.238281 -27.609375 22.25 -26.578125 C 24.269531 -25.546875 25.910156 -24.015625 27.171875 -21.984375 C 28.441406 -19.953125 29.078125 -17.453125 29.078125 -14.484375 L 29.078125 -12.984375 L 6.59375 -12.984375 C 6.65625 -12.023438 6.835938 -11.109375 7.140625 -10.234375 C 7.835938 -8.109375 8.953125 -6.410156 10.484375 -5.140625 C 12.015625 -3.878906 13.78125 -3.25 15.78125 -3.25 C 17.882812 -3.25 19.632812 -3.804688 21.03125 -4.921875 C 22.425781 -6.035156 23.425781 -7.359375 24.03125 -8.890625 L 28.578125 -8.890625 C 28.003906 -7.160156 27.148438 -5.585938 26.015625 -4.171875 C 24.890625 -2.753906 23.484375 -1.617188 21.796875 -0.765625 C 20.117188 0.078125 18.128906 0.5 15.828125 0.5 Z M 7 -16.734375 L 24.53125 -16.734375 C 24.5 -17.203125 24.429688 -17.664062 24.328125 -18.125 C 24.222656 -18.59375 24.085938 -19.03125 23.921875 -19.4375 C 23.191406 -21.03125 22.101562 -22.25 20.65625 -23.09375 C 19.207031 -23.945312 17.597656 -24.375 15.828125 -24.375 C 14.003906 -24.375 12.398438 -23.941406 11.015625 -23.078125 C 9.628906 -22.210938 8.554688 -21 7.796875 -19.4375 C 7.597656 -19 7.429688 -18.546875 7.296875 -18.078125 C 7.160156 -17.617188 7.0625 -17.171875 7 -16.734375 Z M 7 -16.734375 "/></g></g></g><g clip-path="url(#7a18e36757)"><g clip-path="url(#b846aa0f2f)"><path fill="#f85a00" d="M 293.1875 168.597656 L 349.121094 168.597656 L 349.121094 215.394531 L 293.1875 215.394531 Z M 293.1875 168.597656 " fill-opacity="1" fill-rule="nonzero"/></g></g><g clip-path="url(#6df8e7cdab)"><path fill="#ffffff" d="M 333.796875 179.203125 C 331.25 177.597656 321.324219 177.867188 321.1875 177.871094 C 321.046875 177.867188 311.121094 177.597656 308.578125 179.203125 C 307.066406 180.15625 306.574219 181.546875 306.082031 182.953125 C 305.824219 183.683594 305.566406 184.417969 305.160156 185.097656 C 305.050781 185.28125 304.765625 185.207031 304.667969 185.019531 C 304.65625 185.003906 304.648438 184.988281 304.640625 184.972656 C 304.140625 184.132812 300.398438 184.523438 300.398438 185.949219 C 300.398438 186.484375 301.597656 186.960938 302.855469 186.960938 C 302.898438 186.960938 302.933594 186.960938 302.972656 186.964844 C 303.152344 186.972656 303.1875 187.179688 303.039062 187.28125 C 302.644531 187.558594 302.246094 187.789062 301.859375 188.015625 C 300.828125 188.617188 299.855469 189.1875 299.058594 190.46875 C 298.203125 191.855469 297.796875 200.582031 297.972656 204.007812 C 297.972656 205.324219 299.042969 206.394531 300.359375 206.394531 L 302.546875 206.394531 C 303.699219 206.394531 304.664062 205.574219 304.886719 204.488281 C 304.910156 204.375 305.007812 204.285156 305.125 204.285156 L 337.246094 204.285156 C 337.363281 204.285156 337.460938 204.375 337.488281 204.488281 C 337.710938 205.574219 338.671875 206.394531 339.824219 206.394531 L 342.011719 206.394531 C 343.332031 206.394531 344.398438 205.324219 344.398438 204.007812 C 344.578125 200.582031 344.171875 191.855469 343.3125 190.46875 C 342.515625 189.1875 341.542969 188.617188 340.511719 188.015625 C 340.125 187.789062 339.730469 187.558594 339.332031 187.28125 C 339.183594 187.179688 339.21875 186.972656 339.402344 186.964844 C 339.4375 186.960938 339.476562 186.960938 339.515625 186.960938 C 340.777344 186.960938 341.972656 186.484375 341.972656 185.949219 C 341.972656 184.523438 338.230469 184.132812 337.734375 184.972656 C 337.722656 184.988281 337.714844 185.003906 337.707031 185.019531 C 337.605469 185.207031 337.320312 185.28125 337.210938 185.097656 C 336.804688 184.417969 336.546875 183.683594 336.289062 182.953125 C 335.796875 181.546875 335.308594 180.15625 333.796875 179.203125 Z M 309.3125 179.894531 C 311.707031 178.4375 321.054688 178.679688 321.183594 178.683594 C 321.316406 178.679688 330.660156 178.4375 333.054688 179.894531 C 334.480469 180.765625 334.941406 182.027344 335.40625 183.304688 C 335.671875 184.039062 335.941406 184.777344 336.398438 185.449219 C 336.507812 185.613281 336.394531 185.847656 336.199219 185.847656 L 306.171875 185.847656 C 305.972656 185.847656 305.863281 185.613281 305.972656 185.449219 C 306.429688 184.777344 306.695312 184.039062 306.964844 183.304688 C 307.429688 182.027344 307.890625 180.765625 309.3125 179.894531 Z M 321.183594 197.601562 C 309.894531 197.601562 310.242188 195.953125 310.328125 195.753906 C 310.332031 195.738281 310.339844 195.726562 310.34375 195.710938 C 310.429688 195.5 311.199219 193.703125 312.839844 192.769531 C 314.113281 192.042969 317.90625 191.855469 321.1875 191.855469 C 324.464844 191.855469 328.253906 192.042969 329.527344 192.769531 C 331.167969 193.703125 331.9375 195.5 332.023438 195.710938 C 332.03125 195.726562 332.039062 195.738281 332.042969 195.753906 C 332.128906 195.953125 332.472656 197.601562 321.183594 197.601562 Z M 321.207031 199.796875 C 315.730469 199.796875 307.484375 199.277344 305.855469 199.171875 C 305.707031 199.164062 305.59375 199.292969 305.625 199.4375 C 305.738281 199.941406 306.023438 200.941406 306.558594 201.039062 C 312.015625 202.074219 321.164062 201.996094 321.207031 201.996094 C 321.210938 201.996094 321.207031 201.996094 321.207031 201.996094 C 321.253906 201.996094 330.355469 202.074219 335.8125 201.039062 C 336.347656 200.941406 336.632812 199.941406 336.742188 199.4375 C 336.773438 199.292969 336.660156 199.164062 336.511719 199.171875 C 334.890625 199.277344 326.6875 199.796875 321.207031 199.796875 Z M 300.96875 190.191406 L 307.875 191.867188 C 308.199219 191.949219 308.292969 192.378906 308.035156 192.59375 C 306.9375 193.492188 306.429688 193.820312 301.539062 193.351562 C 299.398438 193.148438 300.058594 191.292969 300.539062 190.378906 C 300.621094 190.222656 300.796875 190.152344 300.96875 190.191406 Z M 334.5 191.867188 L 341.40625 190.191406 C 341.574219 190.152344 341.75 190.222656 341.832031 190.378906 C 342.3125 191.292969 342.972656 193.148438 340.832031 193.351562 C 335.941406 193.820312 335.433594 193.492188 334.339844 192.59375 C 334.078125 192.378906 334.171875 191.949219 334.5 191.867188 Z M 303.085938 199.660156 C 303.085938 200.402344 302.484375 201.003906 301.742188 201.003906 C 301 201.003906 300.398438 200.402344 300.398438 199.660156 C 300.398438 198.917969 301 198.316406 301.742188 198.316406 C 302.484375 198.316406 303.085938 198.917969 303.085938 199.660156 Z M 340.628906 201.003906 C 339.886719 201.003906 339.289062 200.402344 339.289062 199.660156 C 339.289062 198.917969 339.886719 198.316406 340.628906 198.316406 C 341.371094 198.316406 341.972656 198.917969 341.972656 199.660156 C 341.972656 200.402344 341.371094 201.003906 340.628906 201.003906 Z M 340.628906 201.003906 " fill-opacity="1" fill-rule="evenodd"/></g></svg>